<mxfile host="app.diagrams.net" agent="Mozilla/5.0 (Windows NT 10.0; Win64; x64) AppleWebKit/537.36 (KHTML, like Gecko) Chrome/141.0.0.0 Safari/537.36" version="28.2.7">
  <diagram id="prtHgNgQTEPvFCAcTncT" name="Page-1">
    <mxGraphModel dx="1042" dy="527" grid="1" gridSize="10" guides="1" tooltips="1" connect="1" arrows="1" fold="1" page="1" pageScale="1" pageWidth="827" pageHeight="1169" math="0" shadow="0">
      <root>
        <mxCell id="0" />
        <mxCell id="1" parent="0" />
        <mxCell id="dNxyNK7c78bLwvsdeMH5-19" value="Lemon Health Monitor" style="swimlane;html=1;childLayout=stackLayout;resizeParent=1;resizeParentMax=0;horizontal=0;startSize=20;horizontalStack=0;" parent="1" vertex="1">
          <mxGeometry x="40" y="40" width="900" height="480" as="geometry" />
        </mxCell>
        <mxCell id="dNxyNK7c78bLwvsdeMH5-20" value="Farmer" style="swimlane;html=1;startSize=20;horizontal=0;" parent="dNxyNK7c78bLwvsdeMH5-19" vertex="1">
          <mxGeometry x="20" width="880" height="350" as="geometry" />
        </mxCell>
        <mxCell id="U5Mm1svxyyShNQMjFFc--8" style="edgeStyle=orthogonalEdgeStyle;rounded=0;orthogonalLoop=1;jettySize=auto;html=1;exitX=1;exitY=0.5;exitDx=0;exitDy=0;entryX=0;entryY=0.5;entryDx=0;entryDy=0;" edge="1" parent="dNxyNK7c78bLwvsdeMH5-20" source="dNxyNK7c78bLwvsdeMH5-23" target="U5Mm1svxyyShNQMjFFc--7">
          <mxGeometry relative="1" as="geometry" />
        </mxCell>
        <mxCell id="dNxyNK7c78bLwvsdeMH5-23" value="" style="ellipse;whiteSpace=wrap;html=1;fillColor=default;" parent="dNxyNK7c78bLwvsdeMH5-20" vertex="1">
          <mxGeometry x="40" y="60" width="40" height="40" as="geometry" />
        </mxCell>
        <mxCell id="U5Mm1svxyyShNQMjFFc--5" value="Login User" style="rounded=1;whiteSpace=wrap;html=1;" vertex="1" parent="dNxyNK7c78bLwvsdeMH5-20">
          <mxGeometry x="210" y="70" width="70" height="20" as="geometry" />
        </mxCell>
        <mxCell id="U5Mm1svxyyShNQMjFFc--10" style="edgeStyle=orthogonalEdgeStyle;rounded=0;orthogonalLoop=1;jettySize=auto;html=1;exitX=1;exitY=0.5;exitDx=0;exitDy=0;entryX=0;entryY=0.5;entryDx=0;entryDy=0;" edge="1" parent="dNxyNK7c78bLwvsdeMH5-20" source="U5Mm1svxyyShNQMjFFc--7" target="U5Mm1svxyyShNQMjFFc--5">
          <mxGeometry relative="1" as="geometry" />
        </mxCell>
        <mxCell id="U5Mm1svxyyShNQMjFFc--11" value="Yes" style="edgeLabel;html=1;align=center;verticalAlign=middle;resizable=0;points=[];" vertex="1" connectable="0" parent="U5Mm1svxyyShNQMjFFc--10">
          <mxGeometry x="-0.12" y="2" relative="1" as="geometry">
            <mxPoint x="-6" y="2" as="offset" />
          </mxGeometry>
        </mxCell>
        <mxCell id="U5Mm1svxyyShNQMjFFc--12" style="edgeStyle=orthogonalEdgeStyle;rounded=0;orthogonalLoop=1;jettySize=auto;html=1;exitX=0.5;exitY=1;exitDx=0;exitDy=0;entryX=0;entryY=0.5;entryDx=0;entryDy=0;" edge="1" parent="dNxyNK7c78bLwvsdeMH5-20" source="U5Mm1svxyyShNQMjFFc--7" target="U5Mm1svxyyShNQMjFFc--9">
          <mxGeometry relative="1" as="geometry" />
        </mxCell>
        <mxCell id="U5Mm1svxyyShNQMjFFc--13" value="No" style="edgeLabel;html=1;align=center;verticalAlign=middle;resizable=0;points=[];" vertex="1" connectable="0" parent="U5Mm1svxyyShNQMjFFc--12">
          <mxGeometry x="0.5891" y="1" relative="1" as="geometry">
            <mxPoint x="-12" y="1" as="offset" />
          </mxGeometry>
        </mxCell>
        <mxCell id="U5Mm1svxyyShNQMjFFc--7" value="Has Account?&lt;div&gt;&lt;/div&gt;&lt;div&gt;&lt;br&gt;&lt;/div&gt;&lt;div&gt;&lt;br&gt;&lt;/div&gt;&lt;div&gt;&lt;br&gt;&lt;/div&gt;&lt;div&gt;&lt;br&gt;&lt;/div&gt;" style="rhombus;whiteSpace=wrap;html=1;" vertex="1" parent="dNxyNK7c78bLwvsdeMH5-20">
          <mxGeometry x="120" y="65" width="30" height="30" as="geometry" />
        </mxCell>
        <mxCell id="U5Mm1svxyyShNQMjFFc--9" value="Register" style="rounded=1;whiteSpace=wrap;html=1;" vertex="1" parent="dNxyNK7c78bLwvsdeMH5-20">
          <mxGeometry x="170" y="110" width="70" height="20" as="geometry" />
        </mxCell>
        <mxCell id="U5Mm1svxyyShNQMjFFc--38" style="edgeStyle=orthogonalEdgeStyle;rounded=0;orthogonalLoop=1;jettySize=auto;html=1;exitX=1;exitY=0.5;exitDx=0;exitDy=0;entryX=0;entryY=0.5;entryDx=0;entryDy=0;" edge="1" parent="dNxyNK7c78bLwvsdeMH5-20" source="U5Mm1svxyyShNQMjFFc--30" target="U5Mm1svxyyShNQMjFFc--32">
          <mxGeometry relative="1" as="geometry" />
        </mxCell>
        <mxCell id="U5Mm1svxyyShNQMjFFc--39" style="edgeStyle=orthogonalEdgeStyle;rounded=0;orthogonalLoop=1;jettySize=auto;html=1;exitX=1;exitY=0.5;exitDx=0;exitDy=0;entryX=0;entryY=0.5;entryDx=0;entryDy=0;" edge="1" parent="dNxyNK7c78bLwvsdeMH5-20" source="U5Mm1svxyyShNQMjFFc--30" target="U5Mm1svxyyShNQMjFFc--33">
          <mxGeometry relative="1" as="geometry" />
        </mxCell>
        <mxCell id="U5Mm1svxyyShNQMjFFc--40" style="edgeStyle=orthogonalEdgeStyle;rounded=0;orthogonalLoop=1;jettySize=auto;html=1;exitX=1;exitY=0.5;exitDx=0;exitDy=0;entryX=0;entryY=0.5;entryDx=0;entryDy=0;" edge="1" parent="dNxyNK7c78bLwvsdeMH5-20" source="U5Mm1svxyyShNQMjFFc--30" target="U5Mm1svxyyShNQMjFFc--34">
          <mxGeometry relative="1" as="geometry" />
        </mxCell>
        <mxCell id="U5Mm1svxyyShNQMjFFc--41" style="edgeStyle=orthogonalEdgeStyle;rounded=0;orthogonalLoop=1;jettySize=auto;html=1;exitX=1;exitY=0.5;exitDx=0;exitDy=0;entryX=0;entryY=0.5;entryDx=0;entryDy=0;" edge="1" parent="dNxyNK7c78bLwvsdeMH5-20" source="U5Mm1svxyyShNQMjFFc--30" target="U5Mm1svxyyShNQMjFFc--35">
          <mxGeometry relative="1" as="geometry" />
        </mxCell>
        <mxCell id="U5Mm1svxyyShNQMjFFc--42" style="edgeStyle=orthogonalEdgeStyle;rounded=0;orthogonalLoop=1;jettySize=auto;html=1;exitX=1;exitY=0.5;exitDx=0;exitDy=0;entryX=0;entryY=0.5;entryDx=0;entryDy=0;" edge="1" parent="dNxyNK7c78bLwvsdeMH5-20" source="U5Mm1svxyyShNQMjFFc--30" target="U5Mm1svxyyShNQMjFFc--36">
          <mxGeometry relative="1" as="geometry">
            <Array as="points">
              <mxPoint x="460" y="85" />
              <mxPoint x="460" y="230" />
            </Array>
          </mxGeometry>
        </mxCell>
        <mxCell id="U5Mm1svxyyShNQMjFFc--43" style="edgeStyle=orthogonalEdgeStyle;rounded=0;orthogonalLoop=1;jettySize=auto;html=1;exitX=1;exitY=0.5;exitDx=0;exitDy=0;entryX=0;entryY=0.5;entryDx=0;entryDy=0;" edge="1" parent="dNxyNK7c78bLwvsdeMH5-20" source="U5Mm1svxyyShNQMjFFc--30" target="U5Mm1svxyyShNQMjFFc--37">
          <mxGeometry relative="1" as="geometry">
            <Array as="points">
              <mxPoint x="460" y="85" />
              <mxPoint x="460" y="280" />
            </Array>
          </mxGeometry>
        </mxCell>
        <mxCell id="U5Mm1svxyyShNQMjFFc--30" value="&lt;div&gt;&lt;br&gt;&lt;/div&gt;" style="rhombus;whiteSpace=wrap;html=1;" vertex="1" parent="dNxyNK7c78bLwvsdeMH5-20">
          <mxGeometry x="395" y="70" width="30" height="30" as="geometry" />
        </mxCell>
        <mxCell id="U5Mm1svxyyShNQMjFFc--77" style="edgeStyle=orthogonalEdgeStyle;rounded=0;orthogonalLoop=1;jettySize=auto;html=1;exitX=1;exitY=0.5;exitDx=0;exitDy=0;" edge="1" parent="dNxyNK7c78bLwvsdeMH5-20" source="U5Mm1svxyyShNQMjFFc--32">
          <mxGeometry relative="1" as="geometry">
            <mxPoint x="650" y="380" as="targetPoint" />
          </mxGeometry>
        </mxCell>
        <mxCell id="U5Mm1svxyyShNQMjFFc--32" value="View &amp;amp; Change Analysis History" style="rounded=1;whiteSpace=wrap;html=1;" vertex="1" parent="dNxyNK7c78bLwvsdeMH5-20">
          <mxGeometry x="490" y="10" width="140" height="40" as="geometry" />
        </mxCell>
        <mxCell id="U5Mm1svxyyShNQMjFFc--76" style="edgeStyle=orthogonalEdgeStyle;rounded=0;orthogonalLoop=1;jettySize=auto;html=1;exitX=1;exitY=0.5;exitDx=0;exitDy=0;" edge="1" parent="dNxyNK7c78bLwvsdeMH5-20" source="U5Mm1svxyyShNQMjFFc--33">
          <mxGeometry relative="1" as="geometry">
            <mxPoint x="650" y="380" as="targetPoint" />
          </mxGeometry>
        </mxCell>
        <mxCell id="U5Mm1svxyyShNQMjFFc--33" value="View&amp;nbsp;&amp;nbsp;&amp;amp; Change&amp;nbsp;User Settings" style="rounded=1;whiteSpace=wrap;html=1;" vertex="1" parent="dNxyNK7c78bLwvsdeMH5-20">
          <mxGeometry x="490" y="60" width="140" height="40" as="geometry" />
        </mxCell>
        <mxCell id="U5Mm1svxyyShNQMjFFc--75" style="edgeStyle=orthogonalEdgeStyle;rounded=0;orthogonalLoop=1;jettySize=auto;html=1;exitX=1;exitY=0.5;exitDx=0;exitDy=0;" edge="1" parent="dNxyNK7c78bLwvsdeMH5-20" source="U5Mm1svxyyShNQMjFFc--34">
          <mxGeometry relative="1" as="geometry">
            <mxPoint x="650" y="380" as="targetPoint" />
          </mxGeometry>
        </mxCell>
        <mxCell id="U5Mm1svxyyShNQMjFFc--34" value="View&amp;nbsp;&amp;nbsp;&amp;amp; Change&amp;nbsp;Orchard Settings" style="rounded=1;whiteSpace=wrap;html=1;" vertex="1" parent="dNxyNK7c78bLwvsdeMH5-20">
          <mxGeometry x="490" y="110" width="140" height="40" as="geometry" />
        </mxCell>
        <mxCell id="U5Mm1svxyyShNQMjFFc--35" value="Connect External Camera" style="rounded=1;whiteSpace=wrap;html=1;" vertex="1" parent="dNxyNK7c78bLwvsdeMH5-20">
          <mxGeometry x="490" y="160" width="140" height="40" as="geometry" />
        </mxCell>
        <mxCell id="U5Mm1svxyyShNQMjFFc--55" style="edgeStyle=orthogonalEdgeStyle;rounded=0;orthogonalLoop=1;jettySize=auto;html=1;exitX=1;exitY=0.5;exitDx=0;exitDy=0;entryX=0;entryY=0.5;entryDx=0;entryDy=0;" edge="1" parent="dNxyNK7c78bLwvsdeMH5-20" source="U5Mm1svxyyShNQMjFFc--36" target="U5Mm1svxyyShNQMjFFc--52">
          <mxGeometry relative="1" as="geometry" />
        </mxCell>
        <mxCell id="U5Mm1svxyyShNQMjFFc--36" value="Logout" style="rounded=1;whiteSpace=wrap;html=1;" vertex="1" parent="dNxyNK7c78bLwvsdeMH5-20">
          <mxGeometry x="680" y="210" width="110" height="40" as="geometry" />
        </mxCell>
        <mxCell id="U5Mm1svxyyShNQMjFFc--37" value="Upload Image" style="rounded=1;whiteSpace=wrap;html=1;" vertex="1" parent="dNxyNK7c78bLwvsdeMH5-20">
          <mxGeometry x="680" y="260" width="110" height="40" as="geometry" />
        </mxCell>
        <mxCell id="U5Mm1svxyyShNQMjFFc--54" value="" style="group" vertex="1" connectable="0" parent="dNxyNK7c78bLwvsdeMH5-20">
          <mxGeometry x="820" y="210" width="40" height="40" as="geometry" />
        </mxCell>
        <mxCell id="U5Mm1svxyyShNQMjFFc--52" value="" style="ellipse;whiteSpace=wrap;html=1;fillColor=default;" vertex="1" parent="U5Mm1svxyyShNQMjFFc--54">
          <mxGeometry width="40" height="40" as="geometry" />
        </mxCell>
        <mxCell id="U5Mm1svxyyShNQMjFFc--53" value="" style="ellipse;whiteSpace=wrap;html=1;fillColor=light-dark(#FFFFFF,#FFFFFF);" vertex="1" parent="U5Mm1svxyyShNQMjFFc--54">
          <mxGeometry x="5" y="5" width="30" height="30" as="geometry" />
        </mxCell>
        <mxCell id="U5Mm1svxyyShNQMjFFc--22" style="edgeStyle=orthogonalEdgeStyle;rounded=0;orthogonalLoop=1;jettySize=auto;html=1;exitX=0.75;exitY=1;exitDx=0;exitDy=0;entryX=0.25;entryY=0;entryDx=0;entryDy=0;" edge="1" parent="dNxyNK7c78bLwvsdeMH5-19" source="U5Mm1svxyyShNQMjFFc--9" target="U5Mm1svxyyShNQMjFFc--19">
          <mxGeometry relative="1" as="geometry" />
        </mxCell>
        <mxCell id="U5Mm1svxyyShNQMjFFc--23" style="edgeStyle=orthogonalEdgeStyle;rounded=0;orthogonalLoop=1;jettySize=auto;html=1;exitX=0.75;exitY=1;exitDx=0;exitDy=0;entryX=0.75;entryY=0;entryDx=0;entryDy=0;" edge="1" parent="dNxyNK7c78bLwvsdeMH5-19" source="U5Mm1svxyyShNQMjFFc--5" target="U5Mm1svxyyShNQMjFFc--19">
          <mxGeometry relative="1" as="geometry" />
        </mxCell>
        <mxCell id="U5Mm1svxyyShNQMjFFc--17" style="edgeStyle=orthogonalEdgeStyle;rounded=0;orthogonalLoop=1;jettySize=auto;html=1;exitX=0.5;exitY=0;exitDx=0;exitDy=0;entryX=0.5;entryY=0;entryDx=0;entryDy=0;" edge="1" parent="dNxyNK7c78bLwvsdeMH5-19" source="U5Mm1svxyyShNQMjFFc--14" target="U5Mm1svxyyShNQMjFFc--7">
          <mxGeometry relative="1" as="geometry">
            <Array as="points">
              <mxPoint x="335" y="20" />
              <mxPoint x="155" y="20" />
            </Array>
          </mxGeometry>
        </mxCell>
        <mxCell id="U5Mm1svxyyShNQMjFFc--18" value="No" style="edgeLabel;html=1;align=center;verticalAlign=middle;resizable=0;points=[];" vertex="1" connectable="0" parent="U5Mm1svxyyShNQMjFFc--17">
          <mxGeometry x="-0.0954" y="1" relative="1" as="geometry">
            <mxPoint x="1" y="147" as="offset" />
          </mxGeometry>
        </mxCell>
        <mxCell id="U5Mm1svxyyShNQMjFFc--31" style="edgeStyle=orthogonalEdgeStyle;rounded=0;orthogonalLoop=1;jettySize=auto;html=1;exitX=0.5;exitY=0;exitDx=0;exitDy=0;entryX=0.5;entryY=1;entryDx=0;entryDy=0;" edge="1" parent="dNxyNK7c78bLwvsdeMH5-19" source="U5Mm1svxyyShNQMjFFc--27" target="U5Mm1svxyyShNQMjFFc--30">
          <mxGeometry relative="1" as="geometry" />
        </mxCell>
        <mxCell id="dNxyNK7c78bLwvsdeMH5-21" value="System" style="swimlane;html=1;startSize=20;horizontal=0;" parent="dNxyNK7c78bLwvsdeMH5-19" vertex="1">
          <mxGeometry x="20" y="350" width="880" height="130" as="geometry" />
        </mxCell>
        <mxCell id="U5Mm1svxyyShNQMjFFc--26" style="edgeStyle=orthogonalEdgeStyle;rounded=0;orthogonalLoop=1;jettySize=auto;html=1;exitX=1;exitY=0.5;exitDx=0;exitDy=0;entryX=0;entryY=0.5;entryDx=0;entryDy=0;" edge="1" parent="dNxyNK7c78bLwvsdeMH5-21" source="U5Mm1svxyyShNQMjFFc--19" target="U5Mm1svxyyShNQMjFFc--14">
          <mxGeometry relative="1" as="geometry" />
        </mxCell>
        <mxCell id="U5Mm1svxyyShNQMjFFc--19" value="Authenticate" style="rounded=1;whiteSpace=wrap;html=1;" vertex="1" parent="dNxyNK7c78bLwvsdeMH5-21">
          <mxGeometry x="200" y="45" width="80" height="20" as="geometry" />
        </mxCell>
        <mxCell id="U5Mm1svxyyShNQMjFFc--28" style="edgeStyle=orthogonalEdgeStyle;rounded=0;orthogonalLoop=1;jettySize=auto;html=1;exitX=1;exitY=0.5;exitDx=0;exitDy=0;entryX=0;entryY=0.5;entryDx=0;entryDy=0;" edge="1" parent="dNxyNK7c78bLwvsdeMH5-21" source="U5Mm1svxyyShNQMjFFc--14" target="U5Mm1svxyyShNQMjFFc--27">
          <mxGeometry relative="1" as="geometry" />
        </mxCell>
        <mxCell id="U5Mm1svxyyShNQMjFFc--29" value="Yes" style="edgeLabel;html=1;align=center;verticalAlign=middle;resizable=0;points=[];" vertex="1" connectable="0" parent="U5Mm1svxyyShNQMjFFc--28">
          <mxGeometry x="-0.16" relative="1" as="geometry">
            <mxPoint as="offset" />
          </mxGeometry>
        </mxCell>
        <mxCell id="U5Mm1svxyyShNQMjFFc--14" value="&lt;div&gt;Auth Success?&lt;/div&gt;&lt;div&gt;&lt;br&gt;&lt;/div&gt;&lt;div&gt;&lt;br&gt;&lt;/div&gt;&lt;div&gt;&lt;br&gt;&lt;/div&gt;&lt;div&gt;&lt;br&gt;&lt;/div&gt;" style="rhombus;whiteSpace=wrap;html=1;" vertex="1" parent="dNxyNK7c78bLwvsdeMH5-21">
          <mxGeometry x="300" y="40" width="30" height="30" as="geometry" />
        </mxCell>
        <mxCell id="U5Mm1svxyyShNQMjFFc--27" value="Get User Data and Token" style="rounded=1;whiteSpace=wrap;html=1;" vertex="1" parent="dNxyNK7c78bLwvsdeMH5-21">
          <mxGeometry x="370" y="35" width="80" height="40" as="geometry" />
        </mxCell>
        <mxCell id="U5Mm1svxyyShNQMjFFc--56" value="Save New Data" style="rounded=1;whiteSpace=wrap;html=1;" vertex="1" parent="dNxyNK7c78bLwvsdeMH5-21">
          <mxGeometry x="590" y="30" width="80" height="40" as="geometry" />
        </mxCell>
        <mxCell id="U5Mm1svxyyShNQMjFFc--70" value="Run &amp;amp; Show Analysis" style="rounded=1;whiteSpace=wrap;html=1;" vertex="1" parent="dNxyNK7c78bLwvsdeMH5-21">
          <mxGeometry x="695" y="30" width="80" height="40" as="geometry" />
        </mxCell>
        <mxCell id="U5Mm1svxyyShNQMjFFc--71" style="edgeStyle=orthogonalEdgeStyle;rounded=0;orthogonalLoop=1;jettySize=auto;html=1;exitX=0.25;exitY=0;exitDx=0;exitDy=0;entryX=0.5;entryY=1;entryDx=0;entryDy=0;" edge="1" parent="dNxyNK7c78bLwvsdeMH5-19" source="U5Mm1svxyyShNQMjFFc--56" target="U5Mm1svxyyShNQMjFFc--30">
          <mxGeometry relative="1" as="geometry">
            <Array as="points">
              <mxPoint x="650" y="330" />
              <mxPoint x="430" y="330" />
            </Array>
          </mxGeometry>
        </mxCell>
        <mxCell id="U5Mm1svxyyShNQMjFFc--72" style="edgeStyle=orthogonalEdgeStyle;rounded=0;orthogonalLoop=1;jettySize=auto;html=1;exitX=0.5;exitY=1;exitDx=0;exitDy=0;entryX=0.5;entryY=0;entryDx=0;entryDy=0;" edge="1" parent="dNxyNK7c78bLwvsdeMH5-19" source="U5Mm1svxyyShNQMjFFc--37" target="U5Mm1svxyyShNQMjFFc--70">
          <mxGeometry relative="1" as="geometry" />
        </mxCell>
        <mxCell id="U5Mm1svxyyShNQMjFFc--73" style="edgeStyle=orthogonalEdgeStyle;rounded=0;orthogonalLoop=1;jettySize=auto;html=1;exitX=0.25;exitY=0;exitDx=0;exitDy=0;entryX=0.5;entryY=1;entryDx=0;entryDy=0;" edge="1" parent="dNxyNK7c78bLwvsdeMH5-19" source="U5Mm1svxyyShNQMjFFc--70" target="U5Mm1svxyyShNQMjFFc--30">
          <mxGeometry relative="1" as="geometry">
            <Array as="points">
              <mxPoint x="740" y="330" />
              <mxPoint x="430" y="330" />
            </Array>
          </mxGeometry>
        </mxCell>
        <mxCell id="U5Mm1svxyyShNQMjFFc--74" style="edgeStyle=orthogonalEdgeStyle;rounded=0;orthogonalLoop=1;jettySize=auto;html=1;exitX=1;exitY=0.5;exitDx=0;exitDy=0;entryX=0.75;entryY=0;entryDx=0;entryDy=0;" edge="1" parent="dNxyNK7c78bLwvsdeMH5-19" source="U5Mm1svxyyShNQMjFFc--35" target="U5Mm1svxyyShNQMjFFc--56">
          <mxGeometry relative="1" as="geometry" />
        </mxCell>
      </root>
    </mxGraphModel>
  </diagram>
</mxfile>
